<svg width="16" height="15" viewBox="0 0 16 15" fill="none" xmlns="http://www.w3.org/2000/svg">
<path d="M3.825 14.9467H0.585V4.52H3.825V14.9467ZM2.185 3.24C1.16167 3.24 0.5 2.515 0.5 1.61833C0.5 0.703334 1.18167 0 2.22667 0C3.27167 0 3.91167 0.703334 3.93167 1.61833C3.93167 2.515 3.27167 3.24 2.185 3.24ZM15.6583 14.9467H12.4183V9.16833C12.4183 7.82333 11.9483 6.91 10.7767 6.91C9.88167 6.91 9.35 7.52833 9.115 8.12333C9.02834 8.335 9.00667 8.635 9.00667 8.93334V14.945H5.765V7.845C5.765 6.54334 5.72333 5.455 5.68 4.51833H8.495L8.64334 5.96667H8.70833C9.135 5.28667 10.18 4.28333 11.9283 4.28333C14.06 4.28333 15.6583 5.71167 15.6583 8.78167V14.9467Z" fill="white"/>
</svg>
