<svg width="18" height="21" viewBox="0 0 18 21" fill="none" xmlns="http://www.w3.org/2000/svg">
<path d="M17.6805 17.1297C17.1855 17.9774 16.5376 18.7256 15.7696 19.3369C15.1536 19.8813 14.4163 20.2706 13.6193 20.4728C12.6653 20.6519 11.6802 20.5648 10.7723 20.2205C9.1761 19.6921 7.72562 18.7976 6.53686 17.6085C5.5834 16.738 4.38648 15.3971 4.38648 15.3971C3.29123 14.2619 2.35301 12.9857 1.59628 11.6017C1.0218 10.5666 0.582737 9.46194 0.290309 8.31508C0.02766 7.36956 -0.0576673 6.38361 0.037982 5.40715C0.0905117 5.00088 0.174923 4.59913 0.290309 4.20596C0.769154 2.64317 2.14888 1.38088 3.10654 0.658213C3.34095 0.481195 3.63639 0.405586 3.92669 0.448098C4.21698 0.490911 4.47841 0.647891 4.65209 0.884428L7.03753 4.12731C7.25615 4.43399 7.30382 4.83115 7.16384 5.18096C6.8684 6.04999 6.35582 6.8291 5.67512 7.44458C5.50417 7.59184 5.32533 7.73 5.1395 7.85813L5.09608 7.89305C4.89143 8.04973 4.12956 8.76357 5.09608 10.0695C6.35161 11.7991 7.73384 13.4329 9.23135 14.9578C9.55351 15.2539 10.4329 15.8982 11.212 14.8315C11.5341 14.3135 12.6615 12.2718 13.4625 12.6985C13.6541 12.803 16.1483 14.7226 17.3801 15.7455C17.8064 16.071 17.9337 16.6572 17.6805 17.1297Z" fill="white"/>
</svg>
