<svg width="17" height="15" viewBox="0 0 17 15" fill="none" xmlns="http://www.w3.org/2000/svg">
<path d="M0.980756 7.29887L4.65924 8.67051L6.09321 13.2842C6.15555 13.5959 6.52964 13.6583 6.77902 13.4712L8.83646 11.7878C9.0235 11.6008 9.33525 11.6008 9.58463 11.7878L13.2631 14.4688C13.5125 14.6558 13.8866 14.5311 13.9489 14.2194L16.6922 1.12653C16.7545 0.8148 16.4428 0.503068 16.1311 0.627762L0.980756 6.48837C0.606675 6.61306 0.606675 7.17418 0.980756 7.29887ZM5.90617 7.98469L13.1384 3.55806C13.2631 3.49572 13.3878 3.68276 13.2631 3.7451L7.34014 9.29397C7.1531 9.48102 6.96606 9.7304 6.96606 10.0421L6.77902 11.5385C6.77902 11.7255 6.46729 11.7878 6.40494 11.5385L5.65677 8.7952C5.46973 8.48346 5.59444 8.10938 5.90617 7.98469Z" fill="white"/>
</svg>
