<svg width="18" height="11" viewBox="0 0 18 11" fill="none" xmlns="http://www.w3.org/2000/svg">
<path d="M17.3453 9.09191C17.3453 9.02549 17.2789 9.02549 17.2789 8.95907C17.0132 8.42773 16.4154 7.76355 15.6184 7.03295C15.2199 6.70085 15.0207 6.43518 14.8878 6.30234C14.6886 6.03667 14.6886 5.83742 14.755 5.57174C14.8214 5.37249 15.0871 5.04039 15.552 4.44263C15.8177 4.11053 15.9505 3.91128 16.1498 3.71203C17.146 2.38366 17.611 1.52022 17.4781 1.12171L17.4117 1.0553C17.3453 0.988878 17.2789 0.922462 17.146 0.922462C17.0132 0.856044 16.8139 0.856044 16.6147 0.922462H14.0908C14.0244 0.922462 14.0244 0.922462 13.8915 0.922462C13.8251 0.922462 13.7587 0.922462 13.7587 0.922462H13.6923H13.6259L13.5594 0.988874C13.493 1.05529 13.493 1.05529 13.493 1.12171C13.2274 1.85231 12.8953 2.45008 12.5632 3.11426C12.3639 3.44635 12.1647 3.77845 11.9654 4.04412C11.7662 4.30979 11.6333 4.50905 11.5005 4.64188C11.3676 4.77472 11.2348 4.84114 11.1684 4.97397C11.102 5.04039 10.9691 5.10681 10.9691 5.0404C10.9027 5.0404 10.8363 5.04039 10.8363 4.97397C10.7699 4.90756 10.7035 4.84114 10.637 4.77472C10.5706 4.7083 10.5706 4.57546 10.5042 4.44263C10.5042 4.30979 10.5042 4.17695 10.5042 4.11053C10.5042 4.04412 10.5042 3.84487 10.5042 3.71203C10.5042 3.51277 10.5042 3.37993 10.5042 3.31352C10.5042 3.11426 10.5042 2.84859 10.5042 2.58292C10.5042 2.31725 10.5042 2.11799 10.5042 1.98515C10.5042 1.85231 10.5042 1.65306 10.5042 1.52022C10.5042 1.32097 10.5042 1.18813 10.5042 1.12171C10.5042 1.05529 10.4378 0.922458 10.4378 0.85604C10.3714 0.789621 10.3049 0.723201 10.2385 0.656783C10.1721 0.590364 10.0393 0.590366 9.97286 0.523948C9.64077 0.45753 9.24227 0.391113 8.77734 0.391113C7.71465 0.391113 6.98404 0.457534 6.71837 0.59037C6.58553 0.656789 6.45269 0.723203 6.38628 0.85604C6.25344 0.988876 6.25343 1.0553 6.31985 1.0553C6.65194 1.12171 6.91762 1.25455 7.05046 1.4538L7.11688 1.58665C7.1833 1.65306 7.18329 1.78589 7.24971 1.98515C7.31612 2.1844 7.31613 2.38366 7.31613 2.64933C7.31613 3.04784 7.31613 3.44636 7.31613 3.71203C7.31613 4.04412 7.24971 4.24337 7.24971 4.44263C7.24971 4.64188 7.1833 4.77472 7.11688 4.84114C7.05046 4.97398 7.05045 5.0404 6.98404 5.0404C6.98404 5.0404 6.98403 5.10681 6.91761 5.10681C6.8512 5.10681 6.78478 5.17323 6.65194 5.17323C6.58553 5.17323 6.45269 5.10681 6.38628 5.0404C6.25344 4.97398 6.1206 4.84114 6.05418 4.7083C5.92135 4.57547 5.78851 4.37621 5.65567 4.11053C5.52283 3.84486 5.32357 3.57919 5.19073 3.18068L5.05791 2.91501C4.99149 2.78218 4.85865 2.5165 4.72582 2.18441C4.59298 1.85231 4.46014 1.58665 4.3273 1.25455C4.26088 1.12172 4.19447 1.05529 4.12806 0.988874H4.06163C4.06163 0.988874 3.99521 0.922462 3.92879 0.922462C3.86237 0.922462 3.79596 0.85604 3.72954 0.85604H1.33848C1.0728 0.85604 0.93997 0.922456 0.873551 0.988874L0.807129 1.0553C0.807129 1.0553 0.807129 1.12171 0.807129 1.18813C0.807129 1.25455 0.807133 1.32096 0.873551 1.4538C1.20564 2.25082 1.60415 3.04784 2.00266 3.84486C2.40117 4.57547 2.79969 5.23965 3.06536 5.70458C3.39745 6.16951 3.66312 6.63444 3.99521 7.03295C4.3273 7.43146 4.52655 7.69713 4.59297 7.82996C4.72581 7.9628 4.79222 8.02921 4.85864 8.09563L5.05791 8.29489C5.19075 8.42773 5.39 8.62698 5.65567 8.82624C5.92134 9.02549 6.25343 9.22474 6.58552 9.424C6.91761 9.62325 7.31613 9.7561 7.71464 9.88894C8.17957 10.0218 8.57808 10.0882 8.97659 10.0218H9.97286C10.1721 10.0218 10.305 9.95535 10.4378 9.82251L10.5042 9.75609C10.5042 9.68967 10.5706 9.68968 10.5706 9.62326C10.5706 9.55684 10.5706 9.49042 10.5706 9.35759C10.5706 9.09191 10.5706 8.89266 10.637 8.6934C10.7035 8.49415 10.7035 8.36131 10.7699 8.22848C10.8363 8.09564 10.9027 8.02922 10.9691 7.9628C11.0356 7.89638 11.102 7.82996 11.102 7.82996H11.1684C11.3012 7.76355 11.5005 7.82996 11.6333 7.9628C11.8326 8.09563 12.0318 8.29489 12.1647 8.49415C12.2975 8.6934 12.4968 8.89266 12.7624 9.15833C13.0281 9.424 13.2274 9.62326 13.3602 9.68968L13.5594 9.82251C13.6923 9.88893 13.8251 9.95535 14.0244 10.0218C14.2236 10.0882 14.3565 10.0882 14.4893 10.0882L16.7475 10.0218C16.9468 10.0218 17.146 9.95535 17.2789 9.88894C17.4117 9.82252 17.4781 9.75609 17.4781 9.62326C17.4781 9.55684 17.4781 9.42401 17.4781 9.35759C17.3453 9.22475 17.3453 9.15833 17.3453 9.09191Z" fill="white"/>
</svg>
